<svg xmlns="http://www.w3.org/2000/svg" width="512" height="512" viewBox="0 0 512 512" version="1.1">
	<path d="M 144.750 33.750 C 205.937 33.892, 306.062 33.892, 367.250 33.750 C 428.437 33.608, 378.375 33.491, 256 33.491 C 133.625 33.491, 83.562 33.608, 144.750 33.750 M 167.193 168.250 L 167.500 172.500 173.013 172.793 L 178.525 173.086 187.314 199.293 C 196.517 226.738, 216.766 282.884, 218.855 286.750 C 219.856 288.602, 220.919 289, 224.875 289 C 229.136 289, 229.825 288.689, 230.971 286.250 C 233.871 280.076, 240.991 262.292, 257.094 221 C 266.423 197.075, 274.473 176.513, 274.981 175.307 C 275.719 173.557, 276.875 173.051, 280.703 172.807 L 285.500 172.500 285.807 168.250 L 286.115 164 265.557 164 L 245 164 245 168.500 L 245 173 252.833 173 C 257.142 173, 260.938 173.271, 261.270 173.603 C 262.625 174.959, 229.318 268.061, 227.228 268.757 C 225.913 269.196, 196 178.346, 196 173.913 C 196 173.411, 200.003 173, 204.895 173 L 213.790 173 214.176 168.948 C 214.389 166.719, 214.361 164.694, 214.115 164.448 C 213.868 164.202, 203.141 164, 190.276 164 L 166.885 164 167.193 168.250 M 281 183.864 C 281 187.703, 281.030 187.732, 285.640 188.364 C 288.191 188.714, 291.566 189, 293.140 189 L 296 189 296 241.500 L 296 294 289 294 C 281.489 294, 281.805 293.742, 281.655 300 L 281.596 302.500 304.356 302.769 L 327.117 303.038 326.808 298.769 L 326.500 294.500 318.750 294.208 L 311 293.916 311 241.587 L 311 189.258 319 188.560 L 327 187.863 327 183.931 L 327 180 304 180 L 281 180 281 183.864 M 0 431.946 L 0 512 60.319 512 L 120.638 512 129.164 503.250 C 145.140 486.855, 157.706 467.393, 162.578 451.500 C 163.883 447.240, 164.420 442.310, 164.428 434.500 C 164.438 425.122, 164.053 422.429, 161.816 416.238 C 156.021 400.199, 142.141 383.256, 128.061 375.035 C 103.861 360.904, 64.403 352.782, 16.750 352.123 L 0 351.891 0 431.946 M 495.500 353.016 C 435.448 357.337, 398.956 370.124, 378.541 394 C 358.547 417.384, 355.342 441.944, 368.804 468.611 C 371.941 474.826, 385.760 494.061, 390.996 499.500 C 392.584 501.150, 395.876 504.637, 398.310 507.250 L 402.737 512 457.368 512 L 512 512 512 432 L 512 352 508.750 352.148 C 506.962 352.230, 501 352.620, 495.500 353.016 M 244.520 408.115 C 199.840 414.621, 163.689 445.931, 154.590 486 C 153.335 491.526, 152.441 504.167, 152.875 510.250 C 152.993 511.905, 158.959 512, 263.145 512 L 373.291 512 372.734 502.250 C 372.428 496.887, 371.408 489.157, 370.468 485.070 C 363.001 452.629, 336.191 424.737, 301.210 413.017 C 284.972 407.577, 261.909 405.582, 244.520 408.115" stroke="none" fill="black" fill-rule="evenodd"/>
</svg>